<svg width="149" height="20" viewBox="0 0 149 20" fill="none" xmlns="http://www.w3.org/2000/svg">
<path d="M5.10679 9.14038H0V7.00342H7.89597V18.4556H5.10679V9.14038ZM4.33927 3.11803C4.33591 2.86985 4.38569 2.62368 4.48548 2.39504C4.58527 2.16641 4.7329 1.96027 4.91907 1.78961C5.10523 1.61896 5.32589 1.4875 5.56714 1.40351C5.80839 1.31952 6.065 1.28483 6.32079 1.30162C6.57634 1.28479 6.83272 1.31949 7.07371 1.40352C7.3147 1.48756 7.53505 1.6191 7.72083 1.78983C7.90661 1.96056 8.05376 2.16676 8.15299 2.39538C8.25221 2.624 8.30135 2.87008 8.29729 3.11803C8.3023 3.36561 8.25369 3.61146 8.15458 3.83973C8.05547 4.06801 7.90806 4.27365 7.72185 4.4434C7.53564 4.61316 7.31476 4.74326 7.07345 4.82533C6.83214 4.90739 6.57574 4.9396 6.32079 4.91988C6.0656 4.93955 5.80898 4.90734 5.56741 4.82532C5.32585 4.7433 5.10466 4.61327 4.91807 4.4436C4.73147 4.27392 4.58359 4.06834 4.48391 3.84006C4.38423 3.61178 4.33497 3.36584 4.33927 3.11803Z" fill="#E30613"/>
<path d="M14.0161 2.74405H17.653V9.71345H17.7132C18.0694 9.11607 18.4607 8.54784 18.8269 7.99903L22.504 2.74405H27.0188L21.6462 9.4269L27.2998 18.4556H23.0257L19.0125 11.6804L17.633 13.322V18.4556H14.0161V2.74405Z" fill="#1D1D1B"/>
<path d="M28.1326 18.4944L29.4971 16.5129C27.9888 14.9027 27.1833 12.7896 27.2497 10.6168C27.2497 6.0175 30.375 2.48666 35.0854 2.48666C36.33 2.46879 37.56 2.74732 38.6672 3.29773L39.9966 1.41818L42.0784 2.76835L40.724 4.73533C42.1562 6.32791 42.9157 8.38468 42.851 10.4954C42.851 15.629 39.5501 18.713 35.0654 18.713C33.8625 18.7235 32.6748 18.4519 31.604 17.9213L30.1392 20L28.1326 18.4944ZM36.9666 5.82809C36.4149 5.4436 35.7501 5.24099 35.0704 5.25014C32.4769 5.25014 30.9318 7.49395 30.9318 10.5925C30.9237 11.5862 31.1359 12.5699 31.5538 13.4774H31.5889L36.9666 5.82809ZM33.2845 15.391C33.7912 15.7671 34.4172 15.9611 35.0553 15.9398C37.6138 15.9398 39.1689 13.7543 39.1689 10.5634C39.1727 9.64705 38.9886 8.73909 38.6271 7.8922H38.5719L33.2845 15.391Z" fill="#1D1D1B"/>
<path d="M45.2739 2.95779C46.8404 2.72185 48.4241 2.60816 50.0094 2.61782C52.2468 2.61782 53.6213 2.83151 54.8102 3.50174C55.4009 3.78975 55.8955 4.23337 56.2372 4.78155C56.5788 5.32973 56.7537 5.96018 56.7416 6.60033C56.7416 7.97964 55.9088 9.2861 54.0778 9.94176V10C55.9339 10.4857 57.3084 11.8407 57.3084 13.8514C57.3135 14.496 57.1639 15.1328 56.8714 15.7118C56.5789 16.2908 56.1515 16.7962 55.6229 17.188C54.429 18.1156 52.4725 18.645 49.2419 18.645C47.9152 18.6575 46.5893 18.5796 45.2739 18.4119V2.95779ZM48.9108 8.97527H50.0997C52.0461 8.97527 53.0595 8.19334 53.0595 7.03258C53.0595 5.87182 52.1214 5.21131 50.4659 5.21131C49.945 5.1963 49.4238 5.23374 48.9108 5.32301V8.97527ZM48.9108 15.9252C49.3766 15.982 49.8463 16.0031 50.3154 15.9884C51.9859 15.9884 53.4508 15.3667 53.4508 13.7106C53.4508 12.137 51.996 11.5105 50.165 11.5105H48.9108V15.9252Z" fill="#1D1D1B"/>
<path d="M69.4584 11.8067H63.4837V15.5415H70.1607V18.4556H59.8167V2.74405H69.8146V5.65808H63.4837V8.93152H69.4584V11.8067Z" fill="#1D1D1B"/>
<path d="M72.6739 18.4556V2.74405H76.9479L80.319 8.50413C81.3261 10.2422 82.2126 12.0431 82.9728 13.8951H83.033C82.8149 11.7129 82.7161 9.52108 82.737 7.3288V2.74405H86.1081V18.4556H82.2705L78.789 12.4041C77.7474 10.6038 76.8063 8.75072 75.9697 6.85284H75.8895C75.9998 8.93152 76.05 11.1559 76.05 13.7203V18.4556H72.6739Z" fill="#1D1D1B"/>
<path d="M92.9606 2.74405V8.78582H99.0105V2.74405H102.678V18.4556H99.0105V11.8796H92.9606V18.4556H89.2936V2.74405H92.9606Z" fill="#1D1D1B"/>
<path d="M109.641 14.4196L108.497 18.4556H104.699L109.656 2.74405H114.456L119.508 18.4556H115.555L114.306 14.4196H109.641ZM113.764 11.7727L112.761 8.43613C112.48 7.50364 112.194 6.32831 111.943 5.41039H111.868C111.627 6.33317 111.366 7.52793 111.126 8.43613L110.152 11.7727H113.764Z" fill="#1D1D1B"/>
<path d="M124.083 18.4556L118.891 2.74405H122.904L124.866 9.39291C125.433 11.2627 125.924 13.0403 126.33 15.0024H126.381C126.792 13.1132 127.319 11.2482 127.886 9.45119L129.927 2.74405H133.835L128.372 18.4556H124.083Z" fill="#1D1D1B"/>
<path d="M135.571 18.4556V2.74405H139.845L143.216 8.50413C144.22 10.2432 145.104 12.0441 145.865 13.8951H145.93C145.712 11.7129 145.613 9.52108 145.634 7.3288V2.74405H148.99V18.4556H145.147L141.666 12.4041C140.624 10.6038 139.683 8.75072 138.847 6.85284H138.766C138.882 8.93152 138.927 11.1559 138.927 13.7203V18.4556H135.571Z" fill="#1D1D1B"/>
<path d="M40.1455 1.31323L38.167 0.00164795L32.4137 8.13657L34.3922 9.44815L40.1455 1.31323Z" fill="white"/>
</svg>
